<?xml version="1.0" encoding="UTF-8" standalone="no"?>
<!DOCTYPE svg PUBLIC "-//W3C//DTD SVG 1.1//EN"
 "http://www.w3.org/Graphics/SVG/1.1/DTD/svg11.dtd">
<!-- Generated by graphviz version 2.38.0 (20140413.2041)
 -->
<!-- Title: snakemake_dag Pages: 1 -->
<svg width="124pt" height="332pt"
 viewBox="0.00 0.00 124.00 332.00" xmlns="http://www.w3.org/2000/svg" xmlns:xlink="http://www.w3.org/1999/xlink">
<g id="graph0" class="graph" transform="scale(1 1) rotate(0) translate(4 328)">
<title>snakemake_dag</title>
<polygon fill="white" stroke="none" points="-4,4 -4,-328 120,-328 120,4 -4,4"/>
<!-- 0 -->
<g id="node1" class="node"><title>0</title>
<path fill="none" stroke="#56d89a" stroke-width="2" d="M93.5,-36C93.5,-36 22.5,-36 22.5,-36 16.5,-36 10.5,-30 10.5,-24 10.5,-24 10.5,-12 10.5,-12 10.5,-6 16.5,-0 22.5,-0 22.5,-0 93.5,-0 93.5,-0 99.5,-0 105.5,-6 105.5,-12 105.5,-12 105.5,-24 105.5,-24 105.5,-30 99.5,-36 93.5,-36"/>
<text text-anchor="middle" x="58" y="-15.5" font-family="sans" font-size="10.00">kallisto_with_qc</text>
</g>
<!-- 1 -->
<g id="node2" class="node"><title>1</title>
<path fill="none" stroke="#56d8d8" stroke-width="2" d="M104,-108C104,-108 12,-108 12,-108 6,-108 0,-102 0,-96 0,-96 0,-84 0,-84 0,-78 6,-72 12,-72 12,-72 104,-72 104,-72 110,-72 116,-78 116,-84 116,-84 116,-96 116,-96 116,-102 110,-108 104,-108"/>
<text text-anchor="middle" x="58" y="-87.5" font-family="sans" font-size="10.00">run_kallisto_multiqc</text>
</g>
<!-- 1&#45;&gt;0 -->
<g id="edge1" class="edge"><title>1&#45;&gt;0</title>
<path fill="none" stroke="grey" stroke-width="2" d="M58,-71.6966C58,-63.9827 58,-54.7125 58,-46.1124"/>
<polygon fill="grey" stroke="grey" stroke-width="2" points="61.5001,-46.1043 58,-36.1043 54.5001,-46.1044 61.5001,-46.1043"/>
</g>
<!-- 2 -->
<g id="node3" class="node"><title>2</title>
<path fill="none" stroke="#d89556" stroke-width="2" d="M73,-180C73,-180 43,-180 43,-180 37,-180 31,-174 31,-168 31,-168 31,-156 31,-156 31,-150 37,-144 43,-144 43,-144 73,-144 73,-144 79,-144 85,-150 85,-156 85,-156 85,-168 85,-168 85,-174 79,-180 73,-180"/>
<text text-anchor="middle" x="58" y="-159.5" font-family="sans" font-size="10.00">kallisto</text>
</g>
<!-- 2&#45;&gt;1 -->
<g id="edge2" class="edge"><title>2&#45;&gt;1</title>
<path fill="none" stroke="grey" stroke-width="2" d="M58,-143.697C58,-135.983 58,-126.712 58,-118.112"/>
<polygon fill="grey" stroke="grey" stroke-width="2" points="61.5001,-118.104 58,-108.104 54.5001,-118.104 61.5001,-118.104"/>
</g>
<!-- 3 -->
<g id="node4" class="node"><title>3</title>
<path fill="none" stroke="#569ad8" stroke-width="2" d="M97,-252C97,-252 19,-252 19,-252 13,-252 7,-246 7,-240 7,-240 7,-228 7,-228 7,-222 13,-216 19,-216 19,-216 97,-216 97,-216 103,-216 109,-222 109,-228 109,-228 109,-240 109,-240 109,-246 103,-252 97,-252"/>
<text text-anchor="middle" x="58" y="-231.5" font-family="sans" font-size="10.00">perfom_trimming</text>
</g>
<!-- 3&#45;&gt;2 -->
<g id="edge3" class="edge"><title>3&#45;&gt;2</title>
<path fill="none" stroke="grey" stroke-width="2" d="M58,-215.697C58,-207.983 58,-198.712 58,-190.112"/>
<polygon fill="grey" stroke="grey" stroke-width="2" points="61.5001,-190.104 58,-180.104 54.5001,-190.104 61.5001,-190.104"/>
</g>
<!-- 4 -->
<g id="node5" class="node"><title>4</title>
<path fill="none" stroke="#97d856" stroke-width="2" d="M76.5,-324C76.5,-324 39.5,-324 39.5,-324 33.5,-324 27.5,-318 27.5,-312 27.5,-312 27.5,-300 27.5,-300 27.5,-294 33.5,-288 39.5,-288 39.5,-288 76.5,-288 76.5,-288 82.5,-288 88.5,-294 88.5,-300 88.5,-300 88.5,-312 88.5,-312 88.5,-318 82.5,-324 76.5,-324"/>
<text text-anchor="middle" x="58" y="-303.5" font-family="sans" font-size="10.00">initial_qc</text>
</g>
<!-- 4&#45;&gt;3 -->
<g id="edge4" class="edge"><title>4&#45;&gt;3</title>
<path fill="none" stroke="grey" stroke-width="2" d="M58,-287.697C58,-279.983 58,-270.712 58,-262.112"/>
<polygon fill="grey" stroke="grey" stroke-width="2" points="61.5001,-262.104 58,-252.104 54.5001,-262.104 61.5001,-262.104"/>
</g>
</g>
</svg>
