<?xml version="1.0" encoding="UTF-8" standalone="no"?>
<!DOCTYPE svg PUBLIC "-//W3C//DTD SVG 1.1//EN"
 "http://www.w3.org/Graphics/SVG/1.1/DTD/svg11.dtd">
<!-- Generated by graphviz version 2.38.0 (20140413.2041)
 -->
<!-- Title: snakemake_dag Pages: 1 -->
<svg width="666pt" height="548pt"
 viewBox="0.00 0.00 665.50 548.00" xmlns="http://www.w3.org/2000/svg" xmlns:xlink="http://www.w3.org/1999/xlink">
<g id="graph0" class="graph" transform="scale(1 1) rotate(0) translate(4 544)">
<title>snakemake_dag</title>
<polygon fill="white" stroke="none" points="-4,4 -4,-544 661.5,-544 661.5,4 -4,4"/>
<!-- 0 -->
<g id="node1" class="node"><title>0</title>
<path fill="none" stroke="#56d892" stroke-width="2" d="M363.5,-36C363.5,-36 309.5,-36 309.5,-36 303.5,-36 297.5,-30 297.5,-24 297.5,-24 297.5,-12 297.5,-12 297.5,-6 303.5,-0 309.5,-0 309.5,-0 363.5,-0 363.5,-0 369.5,-0 375.5,-6 375.5,-12 375.5,-12 375.5,-24 375.5,-24 375.5,-30 369.5,-36 363.5,-36"/>
<text text-anchor="middle" x="336.5" y="-15.5" font-family="sans" font-size="10.00">star_with_qc</text>
</g>
<!-- 1 -->
<g id="node2" class="node"><title>1</title>
<path fill="none" stroke="#56a2d8" stroke-width="2" d="M361.5,-108C361.5,-108 311.5,-108 311.5,-108 305.5,-108 299.5,-102 299.5,-96 299.5,-96 299.5,-84 299.5,-84 299.5,-78 305.5,-72 311.5,-72 311.5,-72 361.5,-72 361.5,-72 367.5,-72 373.5,-78 373.5,-84 373.5,-84 373.5,-96 373.5,-96 373.5,-102 367.5,-108 361.5,-108"/>
<text text-anchor="middle" x="336.5" y="-87.5" font-family="sans" font-size="10.00">run_multiqc</text>
</g>
<!-- 1&#45;&gt;0 -->
<g id="edge1" class="edge"><title>1&#45;&gt;0</title>
<path fill="none" stroke="grey" stroke-width="2" d="M336.5,-71.6966C336.5,-63.9827 336.5,-54.7125 336.5,-46.1124"/>
<polygon fill="grey" stroke="grey" stroke-width="2" points="340,-46.1043 336.5,-36.1043 333,-46.1044 340,-46.1043"/>
</g>
<!-- 2 -->
<g id="node3" class="node"><title>2</title>
<path fill="none" stroke="#d86e56" stroke-width="2" d="M645.5,-180C645.5,-180 529.5,-180 529.5,-180 523.5,-180 517.5,-174 517.5,-168 517.5,-168 517.5,-156 517.5,-156 517.5,-150 523.5,-144 529.5,-144 529.5,-144 645.5,-144 645.5,-144 651.5,-144 657.5,-150 657.5,-156 657.5,-156 657.5,-168 657.5,-168 657.5,-174 651.5,-180 645.5,-180"/>
<text text-anchor="middle" x="587.5" y="-159.5" font-family="sans" font-size="10.00">generate_count_matrices</text>
</g>
<!-- 2&#45;&gt;1 -->
<g id="edge5" class="edge"><title>2&#45;&gt;1</title>
<path fill="none" stroke="grey" stroke-width="2" d="M526.419,-143.966C482.408,-131.691 423.894,-115.373 383.504,-104.109"/>
<polygon fill="grey" stroke="grey" stroke-width="2" points="384.219,-100.675 373.646,-101.359 382.338,-107.417 384.219,-100.675"/>
</g>
<!-- 3 -->
<g id="node4" class="node"><title>3</title>
<path fill="none" stroke="#56b9d8" stroke-width="2" d="M111,-180C111,-180 12,-180 12,-180 6,-180 0,-174 0,-168 0,-168 0,-156 0,-156 0,-150 6,-144 12,-144 12,-144 111,-144 111,-144 117,-144 123,-150 123,-156 123,-156 123,-168 123,-168 123,-174 117,-180 111,-180"/>
<text text-anchor="middle" x="61.5" y="-159.5" font-family="sans" font-size="10.00">perform_qualimap_qc</text>
</g>
<!-- 3&#45;&gt;1 -->
<g id="edge4" class="edge"><title>3&#45;&gt;1</title>
<path fill="none" stroke="grey" stroke-width="2" d="M123.215,-145.291C173.566,-132.474 243.633,-114.639 289.511,-102.961"/>
<polygon fill="grey" stroke="grey" stroke-width="2" points="290.658,-106.28 299.486,-100.422 288.932,-99.4968 290.658,-106.28"/>
</g>
<!-- 4 -->
<g id="node5" class="node"><title>4</title>
<path fill="none" stroke="#d88556" stroke-width="2" d="M278,-180C278,-180 153,-180 153,-180 147,-180 141,-174 141,-168 141,-168 141,-156 141,-156 141,-150 147,-144 153,-144 153,-144 278,-144 278,-144 284,-144 290,-150 290,-156 290,-156 290,-168 290,-168 290,-174 284,-180 278,-180"/>
<text text-anchor="middle" x="215.5" y="-159.5" font-family="sans" font-size="10.00">alignmentsummarymetrics</text>
</g>
<!-- 4&#45;&gt;1 -->
<g id="edge7" class="edge"><title>4&#45;&gt;1</title>
<path fill="none" stroke="grey" stroke-width="2" d="M245.1,-143.876C261.067,-134.639 280.96,-123.131 298.106,-113.212"/>
<polygon fill="grey" stroke="grey" stroke-width="2" points="299.883,-116.227 306.786,-108.19 296.378,-110.168 299.883,-116.227"/>
</g>
<!-- 5 -->
<g id="node6" class="node"><title>5</title>
<path fill="none" stroke="#afd856" stroke-width="2" d="M315.5,-252C315.5,-252 255.5,-252 255.5,-252 249.5,-252 243.5,-246 243.5,-240 243.5,-240 243.5,-228 243.5,-228 243.5,-222 249.5,-216 255.5,-216 255.5,-216 315.5,-216 315.5,-216 321.5,-216 327.5,-222 327.5,-228 327.5,-228 327.5,-240 327.5,-240 327.5,-246 321.5,-252 315.5,-252"/>
<text text-anchor="middle" x="285.5" y="-231.5" font-family="sans" font-size="10.00">featurecounts</text>
</g>
<!-- 5&#45;&gt;1 -->
<g id="edge2" class="edge"><title>5&#45;&gt;1</title>
<path fill="none" stroke="grey" stroke-width="2" d="M291.652,-215.871C300.42,-191.457 316.594,-146.426 326.934,-117.635"/>
<polygon fill="grey" stroke="grey" stroke-width="2" points="330.24,-118.784 330.326,-108.189 323.652,-116.418 330.24,-118.784"/>
</g>
<!-- 6 -->
<g id="node7" class="node"><title>6</title>
<path fill="none" stroke="#78d856" stroke-width="2" d="M427.5,-252C427.5,-252 357.5,-252 357.5,-252 351.5,-252 345.5,-246 345.5,-240 345.5,-240 345.5,-228 345.5,-228 345.5,-222 351.5,-216 357.5,-216 357.5,-216 427.5,-216 427.5,-216 433.5,-216 439.5,-222 439.5,-228 439.5,-228 439.5,-240 439.5,-240 439.5,-246 433.5,-252 427.5,-252"/>
<text text-anchor="middle" x="392.5" y="-231.5" font-family="sans" font-size="10.00">samtools_index</text>
</g>
<!-- 6&#45;&gt;1 -->
<g id="edge6" class="edge"><title>6&#45;&gt;1</title>
<path fill="none" stroke="grey" stroke-width="2" d="M385.745,-215.871C376.117,-191.457 358.358,-146.426 347.004,-117.635"/>
<polygon fill="grey" stroke="grey" stroke-width="2" points="350.204,-116.208 343.279,-108.189 343.692,-118.776 350.204,-116.208"/>
</g>
<!-- 7 -->
<g id="node8" class="node"><title>7</title>
<path fill="none" stroke="#56d8c9" stroke-width="2" d="M487,-180C487,-180 396,-180 396,-180 390,-180 384,-174 384,-168 384,-168 384,-156 384,-156 384,-150 390,-144 396,-144 396,-144 487,-144 487,-144 493,-144 499,-150 499,-156 499,-156 499,-168 499,-168 499,-174 493,-180 487,-180"/>
<text text-anchor="middle" x="441.5" y="-159.5" font-family="sans" font-size="10.00">deeptools_coverage</text>
</g>
<!-- 6&#45;&gt;7 -->
<g id="edge13" class="edge"><title>6&#45;&gt;7</title>
<path fill="none" stroke="grey" stroke-width="2" d="M404.612,-215.697C410.368,-207.474 417.362,-197.483 423.706,-188.421"/>
<polygon fill="grey" stroke="grey" stroke-width="2" points="426.66,-190.304 429.527,-180.104 420.925,-186.29 426.66,-190.304"/>
</g>
<!-- 7&#45;&gt;1 -->
<g id="edge3" class="edge"><title>7&#45;&gt;1</title>
<path fill="none" stroke="grey" stroke-width="2" d="M415.814,-143.876C402.212,-134.808 385.328,-123.552 370.639,-113.759"/>
<polygon fill="grey" stroke="grey" stroke-width="2" points="372.547,-110.825 362.285,-108.19 368.664,-116.649 372.547,-110.825"/>
</g>
<!-- 8 -->
<g id="node9" class="node"><title>8</title>
<path fill="none" stroke="#97d856" stroke-width="2" d="M596.5,-252C596.5,-252 530.5,-252 530.5,-252 524.5,-252 518.5,-246 518.5,-240 518.5,-240 518.5,-228 518.5,-228 518.5,-222 524.5,-216 530.5,-216 530.5,-216 596.5,-216 596.5,-216 602.5,-216 608.5,-222 608.5,-228 608.5,-228 608.5,-240 608.5,-240 608.5,-246 602.5,-252 596.5,-252"/>
<text text-anchor="middle" x="563.5" y="-231.5" font-family="sans" font-size="10.00">stringtie_quant</text>
</g>
<!-- 8&#45;&gt;2 -->
<g id="edge8" class="edge"><title>8&#45;&gt;2</title>
<path fill="none" stroke="grey" stroke-width="2" d="M569.433,-215.697C572.106,-207.898 575.326,-198.509 578.301,-189.829"/>
<polygon fill="grey" stroke="grey" stroke-width="2" points="581.703,-190.699 581.636,-180.104 575.082,-188.429 581.703,-190.699"/>
</g>
<!-- 9 -->
<g id="node10" class="node"><title>9</title>
<path fill="none" stroke="#d8a456" stroke-width="2" d="M353.5,-324C353.5,-324 323.5,-324 323.5,-324 317.5,-324 311.5,-318 311.5,-312 311.5,-312 311.5,-300 311.5,-300 311.5,-294 317.5,-288 323.5,-288 323.5,-288 353.5,-288 353.5,-288 359.5,-288 365.5,-294 365.5,-300 365.5,-300 365.5,-312 365.5,-312 365.5,-318 359.5,-324 353.5,-324"/>
<text text-anchor="middle" x="338.5" y="-303.5" font-family="sans" font-size="10.00">sort</text>
</g>
<!-- 9&#45;&gt;3 -->
<g id="edge9" class="edge"><title>9&#45;&gt;3</title>
<path fill="none" stroke="grey" stroke-width="2" d="M311.21,-294.314C286.004,-284.193 247.707,-268.176 215.5,-252 174.059,-231.187 128.243,-204.165 97.4458,-185.382"/>
<polygon fill="grey" stroke="grey" stroke-width="2" points="99.1386,-182.314 88.7833,-180.074 95.4814,-188.283 99.1386,-182.314"/>
</g>
<!-- 9&#45;&gt;4 -->
<g id="edge10" class="edge"><title>9&#45;&gt;4</title>
<path fill="none" stroke="grey" stroke-width="2" d="M311.179,-298.251C287.283,-290.903 253.508,-276.751 234.5,-252 221.003,-234.425 216.592,-209.394 215.363,-190.351"/>
<polygon fill="grey" stroke="grey" stroke-width="2" points="218.854,-190.059 214.965,-180.204 211.859,-190.333 218.854,-190.059"/>
</g>
<!-- 9&#45;&gt;5 -->
<g id="edge11" class="edge"><title>9&#45;&gt;5</title>
<path fill="none" stroke="grey" stroke-width="2" d="M325.399,-287.697C319.109,-279.389 311.453,-269.277 304.535,-260.141"/>
<polygon fill="grey" stroke="grey" stroke-width="2" points="307.277,-257.964 298.45,-252.104 301.696,-262.19 307.277,-257.964"/>
</g>
<!-- 9&#45;&gt;6 -->
<g id="edge12" class="edge"><title>9&#45;&gt;6</title>
<path fill="none" stroke="grey" stroke-width="2" d="M351.848,-287.697C358.257,-279.389 366.058,-269.277 373.106,-260.141"/>
<polygon fill="grey" stroke="grey" stroke-width="2" points="375.968,-262.16 379.305,-252.104 370.426,-257.884 375.968,-262.16"/>
</g>
<!-- 9&#45;&gt;7 -->
<g id="edge14" class="edge"><title>9&#45;&gt;7</title>
<path fill="none" stroke="grey" stroke-width="2" d="M365.693,-300.347C392,-294.243 430.458,-280.72 448.5,-252 460.048,-233.618 456.864,-208.709 451.612,-189.918"/>
<polygon fill="grey" stroke="grey" stroke-width="2" points="454.893,-188.683 448.562,-180.188 448.214,-190.777 454.893,-188.683"/>
</g>
<!-- 9&#45;&gt;8 -->
<g id="edge15" class="edge"><title>9&#45;&gt;8</title>
<path fill="none" stroke="grey" stroke-width="2" d="M365.64,-296.556C400.921,-285.58 463.373,-266.151 508.695,-252.05"/>
<polygon fill="grey" stroke="grey" stroke-width="2" points="509.869,-255.351 518.378,-249.038 507.79,-248.667 509.869,-255.351"/>
</g>
<!-- 10 -->
<g id="node11" class="node"><title>10</title>
<path fill="none" stroke="#568ad8" stroke-width="2" d="M359,-396C359,-396 318,-396 318,-396 312,-396 306,-390 306,-384 306,-384 306,-372 306,-372 306,-366 312,-360 318,-360 318,-360 359,-360 359,-360 365,-360 371,-366 371,-372 371,-372 371,-384 371,-384 371,-390 365,-396 359,-396"/>
<text text-anchor="middle" x="338.5" y="-375.5" font-family="sans" font-size="10.00">star_align</text>
</g>
<!-- 10&#45;&gt;9 -->
<g id="edge16" class="edge"><title>10&#45;&gt;9</title>
<path fill="none" stroke="grey" stroke-width="2" d="M338.5,-359.697C338.5,-351.983 338.5,-342.712 338.5,-334.112"/>
<polygon fill="grey" stroke="grey" stroke-width="2" points="342,-334.104 338.5,-324.104 335,-334.104 342,-334.104"/>
</g>
<!-- 11 -->
<g id="node12" class="node"><title>11</title>
<path fill="none" stroke="#d8d356" stroke-width="2" d="M377.5,-468C377.5,-468 299.5,-468 299.5,-468 293.5,-468 287.5,-462 287.5,-456 287.5,-456 287.5,-444 287.5,-444 287.5,-438 293.5,-432 299.5,-432 299.5,-432 377.5,-432 377.5,-432 383.5,-432 389.5,-438 389.5,-444 389.5,-444 389.5,-456 389.5,-456 389.5,-462 383.5,-468 377.5,-468"/>
<text text-anchor="middle" x="338.5" y="-447.5" font-family="sans" font-size="10.00">perfom_trimming</text>
</g>
<!-- 11&#45;&gt;10 -->
<g id="edge17" class="edge"><title>11&#45;&gt;10</title>
<path fill="none" stroke="grey" stroke-width="2" d="M338.5,-431.697C338.5,-423.983 338.5,-414.712 338.5,-406.112"/>
<polygon fill="grey" stroke="grey" stroke-width="2" points="342,-406.104 338.5,-396.104 335,-406.104 342,-406.104"/>
</g>
<!-- 12 -->
<g id="node13" class="node"><title>12</title>
<path fill="none" stroke="#56d8a9" stroke-width="2" d="M357,-540C357,-540 320,-540 320,-540 314,-540 308,-534 308,-528 308,-528 308,-516 308,-516 308,-510 314,-504 320,-504 320,-504 357,-504 357,-504 363,-504 369,-510 369,-516 369,-516 369,-528 369,-528 369,-534 363,-540 357,-540"/>
<text text-anchor="middle" x="338.5" y="-519.5" font-family="sans" font-size="10.00">initial_qc</text>
</g>
<!-- 12&#45;&gt;11 -->
<g id="edge18" class="edge"><title>12&#45;&gt;11</title>
<path fill="none" stroke="grey" stroke-width="2" d="M338.5,-503.697C338.5,-495.983 338.5,-486.712 338.5,-478.112"/>
<polygon fill="grey" stroke="grey" stroke-width="2" points="342,-478.104 338.5,-468.104 335,-478.104 342,-478.104"/>
</g>
</g>
</svg>
